<svg width="24" height="24" viewBox="0 0 24 24" fill="none" xmlns="http://www.w3.org/2000/svg">
<path fill-rule="evenodd" clip-rule="evenodd" d="M3 5.50009C2.44772 5.50009 2 5.94781 2 6.50009V15.5001C2 16.0524 2.44772 16.5001 3 16.5001H11C11.2761 16.5001 11.5 16.2762 11.5 16.0001C11.5 15.7239 11.2761 15.5001 11 15.5001H6C6 14.7044 5.68393 13.9414 5.12132 13.3788C4.55871 12.8162 3.79565 12.5001 3 12.5001V9.50009C3.79565 9.50009 4.55871 9.18402 5.12132 8.62141C5.68393 8.0588 6 7.29574 6 6.50009H15C15 7.29574 15.3161 8.0588 15.8787 8.62141C16.4413 9.18402 17.2044 9.50009 18 9.50009V11.0001C18 11.2762 18.2239 11.5001 18.5 11.5001C18.7761 11.5001 19 11.2762 19 11.0001V6.50009C19 5.94781 18.5523 5.50009 18 5.50009H3ZM16.5858 7.91431C16.9609 8.28938 17.4696 8.50009 18 8.50009V6.50009H16C16 7.03053 16.2107 7.53923 16.5858 7.91431ZM5 6.50009L3 6.50009V8.50009C3.53043 8.50009 4.03914 8.28938 4.41422 7.91431C4.78929 7.53923 5 7.03053 5 6.50009ZM4.41422 14.0859C4.03914 13.7108 3.53043 13.5001 3 13.5001V15.5001H5C5 14.9697 4.78929 14.461 4.41422 14.0859Z" fill="#F8F8FA"/>
<path d="M6 10.0001C6 9.72395 5.77614 9.50009 5.5 9.50009C5.22386 9.50009 5 9.72395 5 10.0001V12.0001C5 12.2762 5.22386 12.5001 5.5 12.5001C5.77614 12.5001 6 12.2762 6 12.0001V10.0001Z" fill="#F8F8FA"/>
<path d="M16 10.0001C16 9.72395 15.7761 9.50009 15.5 9.50009C15.2239 9.50009 15 9.72395 15 10.0001V11.0001C15 11.2762 15.2239 11.5001 15.5 11.5001C15.7761 11.5001 16 11.2762 16 11.0001V10.0001Z" fill="#F8F8FA"/>
<path fill-rule="evenodd" clip-rule="evenodd" d="M8 11.0001C8 9.61938 9.11929 8.50009 10.5 8.50009C11.8807 8.50009 13 9.61938 13 11.0001C13 12.3808 11.8807 13.5001 10.5 13.5001C9.11929 13.5001 8 12.3808 8 11.0001ZM10.5 9.50009C9.67157 9.50009 9 10.1717 9 11.0001C9 11.8285 9.67157 12.5001 10.5 12.5001C11.3284 12.5001 12 11.8285 12 11.0001C12 10.1717 11.3284 9.50009 10.5 9.50009Z" fill="#F8F8FA"/>
<path d="M17 14.5001C17.2761 14.5001 17.5 14.7239 17.5 15.0001V16.6214H19.1213C19.3975 16.6214 19.6213 16.8453 19.6213 17.1214C19.6213 17.3976 19.3975 17.6214 19.1213 17.6214H17.5V19.2427C17.5 19.5189 17.2761 19.7427 17 19.7427C16.7239 19.7427 16.5 19.5189 16.5 19.2427V17.6214H14.8787C14.6026 17.6214 14.3787 17.3976 14.3787 17.1214C14.3787 16.8453 14.6026 16.6214 14.8787 16.6214H16.5V15.0001C16.5 14.7239 16.7239 14.5001 17 14.5001Z" fill="#F8F8FA"/>
<path fill-rule="evenodd" clip-rule="evenodd" d="M17 12.0001C14.2386 12.0001 12 14.2387 12 17.0001C12 19.7615 14.2386 22.0001 17 22.0001C19.7614 22.0001 22 19.7615 22 17.0001C22 14.2387 19.7614 12.0001 17 12.0001ZM13 17.0001C13 14.791 14.7909 13.0001 17 13.0001C19.2091 13.0001 21 14.791 21 17.0001C21 19.2092 19.2091 21.0001 17 21.0001C14.7909 21.0001 13 19.2092 13 17.0001Z" fill="#F8F8FA"/>
</svg>
