<svg width="24" height="24" viewBox="0 0 24 24" fill="none" xmlns="http://www.w3.org/2000/svg">
<path fill-rule="evenodd" clip-rule="evenodd" d="M15.63 12C15.6376 12.914 15.421 13.8153 15 14.6252V19.5668C15 20.8799 13.4321 21.5592 12.4741 20.6611L7.30228 15.8125H5.5C4.67157 15.8125 4 15.1409 4 14.3125V10.4688C4 9.64032 4.67157 8.96875 5.5 8.96875H7.28334L12.4056 3.50354C13.3355 2.5113 15 3.16939 15 4.5293V9.37481C15.421 10.1847 15.6376 11.086 15.63 12ZM13.1352 4.18738C13.4452 3.85663 14 4.07599 14 4.5293V9.48942C13.9998 9.49676 13.9998 9.50412 14 9.51148V14.4885C13.9998 14.4959 13.9998 14.5032 14 14.5106V19.5668C14 20.0045 13.4774 20.2309 13.158 19.9315L7.84197 14.9477C7.7493 14.8609 7.62703 14.8125 7.5 14.8125H5.5C5.22386 14.8125 5 14.5886 5 14.3125V10.4688C5 10.1926 5.22386 9.96875 5.5 9.96875H7.5C7.63823 9.96875 7.77029 9.91153 7.86482 9.81067L13.1352 4.18738Z" fill="#F8F8FA"/>
<path d="M16.4995 8.16165C16.7416 8.02882 17.0455 8.11741 17.1783 8.35951C17.8071 9.50566 18.1346 10.7927 18.13 12.1C18.1346 13.4073 17.8071 14.6944 17.1783 15.8405C17.0455 16.0826 16.7416 16.1712 16.4995 16.0384C16.2574 15.9055 16.1688 15.6016 16.3016 15.3595C16.8492 14.3613 17.1343 13.2404 17.13 12.1019V12.0981C17.1343 10.9596 16.8492 9.83868 16.3016 8.8405C16.1688 8.5984 16.2574 8.29447 16.4995 8.16165Z" fill="#F8F8FA"/>
<path d="M18.9174 7.25793C18.7838 7.01631 18.4795 6.92881 18.2379 7.06251C17.9963 7.1962 17.9088 7.50045 18.0425 7.74207C18.7629 9.0442 19.1374 10.5094 19.13 11.9975L19.13 12.0025C19.1374 13.4906 18.7629 14.9558 18.0425 16.2579C17.9088 16.4995 17.9963 16.8038 18.2379 16.9375C18.4795 17.0712 18.7838 16.9837 18.9174 16.7421C19.7203 15.291 20.1378 13.6583 20.13 12C20.1378 10.3417 19.7203 8.70899 18.9174 7.25793Z" fill="#F8F8FA"/>
</svg>
