<svg width="24" height="24" viewBox="0 0 24 24" fill="none" xmlns="http://www.w3.org/2000/svg">
<path d="M5.08763 4.74207C5.22133 4.50045 5.13383 4.1962 4.89221 4.06251C4.65059 3.92881 4.34634 4.01631 4.21264 4.25793C3.40975 5.70899 2.99227 7.34166 3.00011 9C2.99227 10.6583 3.40975 12.291 4.21264 13.7421C4.34634 13.9837 4.65059 14.0712 4.89221 13.9375C5.13383 13.8038 5.22133 13.4995 5.08763 13.2579C4.36714 11.9558 3.99271 10.4906 4.00013 9.00249L4.00011 8.99751C3.99269 7.50937 4.36714 6.0442 5.08763 4.74207Z" fill="#F8F8FA"/>
<path d="M19.108 4.06251C19.3496 3.92881 19.6539 4.01631 19.7876 4.25793C20.5905 5.70899 21.008 7.34166 21.0001 9C21.008 10.6583 20.5905 12.291 19.7876 13.7421C19.6539 13.9837 19.3496 14.0712 19.108 13.9375C18.8664 13.8038 18.7789 13.4995 18.9126 13.2579C19.6331 11.9558 20.0075 10.4906 20.0001 9.00249L20.0001 8.99751C20.0075 7.50937 19.6331 6.0442 18.9126 4.74207C18.7789 4.50045 18.8664 4.1962 19.108 4.06251Z" fill="#F8F8FA"/>
<path d="M6.63062 5.06164C6.87272 5.19446 6.96131 5.4984 6.82849 5.7405C6.28087 6.73867 5.99582 7.85961 6.00011 8.99811V9.00189C5.99582 10.1404 6.28087 11.2613 6.82849 12.2595C6.96131 12.5016 6.87272 12.8055 6.63062 12.9384C6.38852 13.0712 6.08459 12.9826 5.95176 12.7405C5.32296 11.5943 4.9955 10.3073 5.00011 9C4.9955 7.69271 5.32296 6.40565 5.95176 5.2595C6.08459 5.0174 6.38852 4.92882 6.63062 5.06164Z" fill="#F8F8FA"/>
<path d="M8.37108 6.06191C8.61304 6.195 8.70128 6.49904 8.56819 6.74099C8.18849 7.43126 7.99284 8.20763 8.00007 8.99541L8.00016 9.00459C7.99292 9.79237 8.18849 10.5687 8.56819 11.259C8.70128 11.501 8.61304 11.805 8.37108 11.9381C8.12913 12.0712 7.8251 11.9829 7.692 11.741C7.23032 10.9017 6.99206 9.95783 7.00007 9C6.99206 8.04217 7.23032 7.09832 7.692 6.25901C7.8251 6.01706 8.12913 5.92881 8.37108 6.06191Z" fill="#F8F8FA"/>
<path fill-rule="evenodd" clip-rule="evenodd" d="M10.0001 9C10.0001 7.89543 10.8956 7 12.0001 7C13.1047 7 14.0001 7.89543 14.0001 9C14.0001 9.69591 13.6447 10.3088 13.1055 10.6671L14.4386 14H14.5001V14.1537L16.9644 20.3143C17.0669 20.5707 16.9422 20.8617 16.6858 20.9642C16.4294 21.0668 16.1384 20.9421 16.0359 20.6857L14.9616 18H9.03864L7.96436 20.6857C7.8618 20.9421 7.57082 21.0668 7.31443 20.9642C7.05803 20.8617 6.93333 20.5707 7.03588 20.3143L9.50012 14.1537V14H9.56161L10.8948 10.6671C10.3556 10.3088 10.0001 9.69591 10.0001 9ZM12.0001 8C11.4478 8 11.0001 8.44772 11.0001 9C11.0001 9.55229 11.4478 10 12.0001 10C12.5524 10 13.0001 9.55229 13.0001 9C13.0001 8.44772 12.5524 8 12.0001 8ZM14.5616 17L13.7616 15H10.2386L9.43864 17H14.5616ZM12.1591 10.9938L13.3616 14H10.6386L11.8411 10.9938C11.8936 10.9979 11.9466 11 12.0001 11C12.0536 11 12.1067 10.9979 12.1591 10.9938Z" fill="#F8F8FA"/>
<path d="M16.3082 6.25901C16.1751 6.01706 15.8711 5.92881 15.6291 6.06191C15.3872 6.195 15.2989 6.49904 15.432 6.74099C15.8117 7.43126 16.0073 8.20763 16.0001 8.99541L16.0001 9.00459C16.0074 9.79237 15.8117 10.5687 15.432 11.259C15.2989 11.501 15.3872 11.805 15.6291 11.9381C15.8711 12.0712 16.1751 11.9829 16.3082 11.741C16.7699 10.9017 17.0082 9.95783 17.0001 9C17.0082 8.04217 16.7699 7.09832 16.3082 6.25901Z" fill="#F8F8FA"/>
<path d="M18.0485 5.2595C17.9156 5.0174 17.6117 4.92882 17.3696 5.06164C17.1275 5.19446 17.0389 5.4984 17.1717 5.7405C17.7194 6.73867 18.0044 7.85961 18.0001 8.99811V9.00189C18.0044 10.1404 17.7194 11.2613 17.1717 12.2595C17.0389 12.5016 17.1275 12.8055 17.3696 12.9384C17.6117 13.0712 17.9156 12.9826 18.0485 12.7405C18.6773 11.5943 19.0047 10.3073 19.0001 9C19.0047 7.69271 18.6773 6.40565 18.0485 5.2595Z" fill="#F8F8FA"/>
</svg>
