<svg width="24" height="24" viewBox="0 0 24 24" fill="none" xmlns="http://www.w3.org/2000/svg">
<path d="M14.5 2.23199C14.2099 2.23199 13.9748 2.45585 13.9748 2.73199C13.9748 3.00814 14.2099 3.23199 14.5 3.23199C15.6868 3.23199 16.825 3.68081 17.6642 4.47972C18.5033 5.27862 18.9748 6.36217 18.9748 7.49199C18.9748 7.76814 19.2099 7.99199 19.5 7.99199C19.7901 7.99199 20.0252 7.76814 20.0252 7.49199C20.0252 6.09696 19.4431 4.75905 18.4069 3.77261C17.3707 2.78617 15.9654 2.23199 14.5 2.23199Z" fill="#F8F8FA"/>
<path fill-rule="evenodd" clip-rule="evenodd" d="M14.7059 8.4874C15.286 8.4874 15.7563 8.03968 15.7563 7.4874C15.7563 6.93511 15.286 6.4874 14.7059 6.4874C14.1257 6.4874 13.6554 6.93511 13.6554 7.4874C13.6554 7.57697 13.6678 7.6638 13.691 7.74641L12.8412 8.5554L7.74642 3.70513C7.54131 3.50987 7.20877 3.50987 7.00366 3.70513C3.90989 6.65041 4.06318 11.5124 7.26841 14.5638C7.41986 14.708 7.57556 14.8457 7.7351 14.9768L4.26197 21.2674C4.1764 21.4224 4.18222 21.6087 4.27732 21.7585C4.37242 21.9084 4.54295 22 4.72687 22H14.7059C14.8879 22 15.0569 21.9103 15.1526 21.7629C15.2483 21.6155 15.257 21.4314 15.1756 21.2764L12.8954 16.9349C14.9992 17.0146 17.0982 16.3165 18.6746 14.8158C18.8797 14.6206 18.8797 14.304 18.6746 14.1087L13.584 9.26251L14.4338 8.45352C14.5206 8.47562 14.6118 8.4874 14.7059 8.4874ZM11.6481 16.796C10.5771 16.5972 9.53186 16.1944 8.58263 15.5911L5.59627 21H13.8561L11.6481 16.796ZM8.7965 14.5094C11.4664 16.4396 15.1156 16.4164 17.5455 14.4481L7.38995 4.77998C5.11119 7.32956 5.31439 11.2893 8.01117 13.8567C8.21482 14.0505 8.42681 14.2309 8.64587 14.3977L8.6477 14.3986C8.70563 14.4276 8.75552 14.4654 8.7965 14.5094Z" fill="#F8F8FA"/>
<path d="M13.9801 4.61252C14.0214 4.33919 14.2875 4.14942 14.5747 4.18867C15.4315 4.30581 16.2254 4.68405 16.8374 5.26675C17.4495 5.84944 17.8468 6.60523 17.9699 7.42092C18.0111 7.69426 17.8118 7.94767 17.5247 7.98692C17.2375 8.02617 16.9714 7.83641 16.9301 7.56307C16.8394 6.9613 16.5462 6.40373 16.0947 5.97385C15.6431 5.54398 15.0575 5.26493 14.4253 5.17852C14.1382 5.13927 13.9389 4.88586 13.9801 4.61252Z" fill="#F8F8FA"/>
</svg>
