<svg width="24" height="24" viewBox="0 0 24 24" fill="none" xmlns="http://www.w3.org/2000/svg">
<path fill-rule="evenodd" clip-rule="evenodd" d="M11.9512 1.91138C12.0839 1.91138 12.2111 1.9641 12.3049 2.05794L21.8659 11.6253C22.0088 11.7683 22.0516 11.9834 21.9741 12.1702C21.8967 12.357 21.7144 12.4788 21.5122 12.4788H2.39015C2.18795 12.4788 2.00565 12.357 1.92824 12.1702C1.85083 11.9834 1.89355 11.7683 2.03648 11.6253L11.5975 2.05794C11.6913 1.9641 11.8185 1.91138 11.9512 1.91138ZM3.59669 11.4788H20.3057L11.9512 3.11872L3.59669 11.4788Z" fill="#F8F8FA"/>
<path d="M1.92824 11.7873C2.00565 11.6005 2.18795 11.4788 2.39015 11.4788H21.5122C21.7144 11.4788 21.8967 11.6005 21.9741 11.7873C22.0516 11.9741 22.0088 12.1892 21.8659 12.3322L12.3049 21.8996C12.2111 21.9934 12.0839 22.0461 11.9512 22.0461C11.8185 22.0461 11.6913 21.9934 11.5975 21.8996L2.03648 12.3322C1.89355 12.1892 1.85083 11.9741 1.92824 11.7873Z" fill="#F8F8FA"/>
</svg>
