<svg width="24" height="24" viewBox="0 0 24 24" fill="none" xmlns="http://www.w3.org/2000/svg">
<path fill-rule="evenodd" clip-rule="evenodd" d="M6.71466 8.86787C5.68241 8.2014 5 7.04753 5 5.7357C5 3.67253 6.68798 2 8.77021 2H15.2298C17.312 2 19 3.67253 19 5.7357C19 7.04753 18.3176 8.2014 17.2853 8.86787C18.3176 9.53433 19 10.6882 19 12C19 14.0632 17.312 15.7357 15.2298 15.7357H15.1611C14.1768 15.7357 13.2806 15.362 12.6091 14.7499V18.2302C12.6091 20.3165 10.8842 22 8.7873 22C6.70934 22 5 20.3317 5 18.2643C5 16.9525 5.68238 15.7986 6.71459 15.1322C5.68238 14.4657 5 13.3118 5 12C5 10.6882 5.68241 9.53433 6.71466 8.86787ZM12.6091 12C12.6091 13.3965 13.7517 14.5286 15.1611 14.5286H15.2298C16.6392 14.5286 17.7817 13.3965 17.7817 12C17.7817 10.6035 16.6392 9.47147 15.2298 9.47147H15.1611C13.7517 9.47147 12.6091 10.6035 12.6091 12ZM11.3909 9.47147H8.77021C7.36081 9.47147 6.21828 10.6035 6.21828 12C6.21828 13.3937 7.3562 14.524 8.76163 14.5286H8.76563H11.3909V9.47147ZM8.77021 15.7357C8.76735 15.7357 8.76449 15.7357 8.76163 15.7357C7.3562 15.7403 6.21828 16.8706 6.21828 18.2643C6.21828 19.6566 7.37362 20.7929 8.7873 20.7929C10.2199 20.7929 11.3909 19.6413 11.3909 18.2302V15.7357H8.77021ZM11.3909 8.26427H8.77021C7.36081 8.26427 6.21828 7.1322 6.21828 5.7357C6.21828 4.3392 7.36081 3.20713 8.77021 3.20713H11.3909V8.26427ZM15.2298 8.26427H12.6091V3.20713H15.2298C16.6392 3.20713 17.7817 4.3392 17.7817 5.7357C17.7817 7.1322 16.6392 8.26427 15.2298 8.26427Z" fill="white"/>
</svg>
