<svg width="24" height="24" viewBox="0 0 24 24" fill="none" xmlns="http://www.w3.org/2000/svg">
<path d="M14 7.87868L15 6.87868V4.5293C15 3.16939 13.3355 2.5113 12.4056 3.50354L7.28334 8.96875H5.5C4.67157 8.96875 4 9.64032 4 10.4688V14.3125C4 15.1409 4.67157 15.8125 5.5 15.8125H6.06618L7.06618 14.8125H5.5C5.22386 14.8125 5 14.5886 5 14.3125V10.4688C5 10.1926 5.22386 9.96875 5.5 9.96875H7.5C7.63823 9.96875 7.77029 9.91153 7.86482 9.81067L13.1352 4.18738C13.4452 3.85663 14 4.07599 14 4.5293V7.87868Z" fill="#F8F8FA"/>
<path d="M15.4752 10.6461C15.5814 11.0876 15.6338 11.5422 15.63 12C15.6376 12.914 15.421 13.8153 15 14.6252V19.5668C15 20.8799 13.4321 21.5592 12.4741 20.6611L8.85404 17.2673L9.56151 16.5598L13.158 19.9315C13.4774 20.2309 14 20.0045 14 19.5668V14.5106C13.9998 14.5032 13.9998 14.4959 14 14.4885V12.1213L15.4752 10.6461Z" fill="#F8F8FA"/>
<path d="M20.3536 3.64645C20.1583 3.45118 19.8417 3.45118 19.6464 3.64645L3.64645 19.6464C3.45118 19.8417 3.45118 20.1583 3.64645 20.3536C3.84171 20.5488 4.15829 20.5488 4.35355 20.3536L20.3536 4.35355C20.5488 4.15829 20.5488 3.84171 20.3536 3.64645Z" fill="#F8F8FA"/>
<path d="M18.1783 8.35951C18.0455 8.11741 17.7416 8.02882 17.4995 8.16165C17.2574 8.29447 17.1688 8.5984 17.3016 8.8405C17.8492 9.83868 18.1343 10.9596 18.13 12.0981V12.1019C18.1343 13.2404 17.8492 14.3613 17.3016 15.3595C17.1688 15.6016 17.2574 15.9055 17.4995 16.0384C17.7416 16.1712 18.0455 16.0826 18.1783 15.8405C18.8071 14.6944 19.1346 13.4073 19.13 12.1C19.1346 10.7927 18.8071 9.50566 18.1783 8.35951Z" fill="#F8F8FA"/>
</svg>
