<svg width="24" height="24" viewBox="0 0 24 24" fill="none" xmlns="http://www.w3.org/2000/svg">
<path fill-rule="evenodd" clip-rule="evenodd" d="M18.4933 10.7021L18.7379 11.4045C18.7819 11.5305 18.8743 11.6338 18.9948 11.6913C19.1153 11.7487 19.2537 11.7557 19.3793 11.7105L20.5158 11.3017L20.5177 11.3011C20.7355 11.2243 20.936 11.1055 21.1079 10.9513C21.2803 10.7966 21.4204 10.6095 21.5204 10.4005C21.6203 10.1916 21.678 9.96504 21.6902 9.73378C21.7 9.5475 21.6801 9.36113 21.6315 9.18161C22.0883 8.07242 22.1222 6.83142 21.7224 5.69575C21.3324 4.5604 20.5335 3.61358 19.4851 3.03754C19.3173 2.65874 19.0183 2.35136 18.6411 2.17357C18.2272 1.97851 17.753 1.95532 17.3221 2.10908L16.1686 2.53034C15.912 2.62407 15.7781 2.90644 15.8679 3.16446L16.113 3.86813L7.34058 7.02955L7.33194 7.03285C6.59099 7.31547 5.9887 7.87471 5.652 8.59271C5.58421 8.73726 5.52826 8.88597 5.48421 9.03744C5.45605 9.04235 5.42818 9.0497 5.40092 9.0595L4.26254 9.46892C4.04478 9.54568 3.84424 9.66455 3.67236 9.81874C3.49998 9.97339 3.35982 10.1605 3.2599 10.3695C3.15998 10.5784 3.10228 10.805 3.09009 11.0362C3.08696 11.0957 3.08687 11.1553 3.0898 11.2147L2.32991 11.4899C2.07264 11.583 1.93803 11.8657 2.02783 12.1241L2.43783 13.3041C2.48172 13.4304 2.57439 13.5339 2.69513 13.5914C2.81586 13.6489 2.95461 13.6557 3.08035 13.6101L3.84238 13.3342C3.87309 13.3753 3.90563 13.4152 3.93991 13.4536C4.09591 13.6283 4.28505 13.7704 4.49637 13.8715C4.70768 13.9727 4.93697 14.0308 5.17093 14.0427C5.40489 14.0545 5.63889 14.0198 5.85933 13.9405L6.97338 13.529C7.00524 13.5173 7.03519 13.5026 7.06305 13.4854C7.19242 13.574 7.32877 13.6526 7.47096 13.7204C7.83018 13.8917 8.21961 13.9905 8.61703 14.0112C8.8925 14.0256 9.16805 14.0023 9.43614 13.9423C9.92427 14.1877 10.4554 14.3378 11.001 14.384C11.3791 14.416 11.7588 14.3976 12.1301 14.3301V17.4502L7.26988 21.1002C7.04908 21.266 7.0045 21.5795 7.17033 21.8003C7.33615 22.0211 7.64958 22.0656 7.87039 21.8998L12.1301 18.7008V21.5C12.1301 21.7762 12.354 22 12.6301 22C12.9063 22 13.1301 21.7762 13.1301 21.5V18.6996L17.4003 21.9001C17.6212 22.0657 17.9346 22.0208 18.1002 21.7999C18.2658 21.5789 18.221 21.2655 18 21.0999L13.1301 17.4499V14.0184C13.5861 13.8122 14.0033 13.5275 14.3623 13.1765C14.7482 12.7991 15.0589 12.3527 15.2788 11.8612L18.4933 10.7021ZM17.6597 3.05037L16.9743 3.30068L17.2042 3.96059C17.2109 3.97525 17.217 3.99028 17.2223 4.00566L19.2723 9.89566C19.2757 9.90542 19.2788 9.91522 19.2816 9.92504L19.5162 10.5986L20.1844 10.3582C20.2788 10.3251 20.3657 10.2737 20.4401 10.2069C20.5146 10.1401 20.5751 10.0593 20.6182 9.96909C20.6614 9.87887 20.6863 9.78103 20.6916 9.68117C20.6968 9.5813 20.6823 9.48138 20.6489 9.38713L20.6481 9.38482L18.5891 3.48781C18.5231 3.30732 18.3886 3.16009 18.2147 3.07813C18.0406 2.99605 17.8411 2.98609 17.6597 3.05037ZM9.35713 12.9301L11.8451 12.0363L18.1644 9.75773L16.442 4.81255L7.68424 7.96875C7.1873 8.15951 6.78344 8.53525 6.55739 9.01728C6.33101 9.50003 6.30063 10.0517 6.4726 10.5564L6.86144 11.6631C6.95046 11.9142 7.08823 12.1459 7.26653 12.3438C7.44495 12.542 7.66066 12.703 7.90132 12.8177C8.14199 12.9325 8.4029 12.9987 8.66916 13.0126C8.90176 13.0247 9.13447 12.9967 9.35713 12.9301ZM4.13243 11.3759L4.48781 12.3987L4.53268 12.5266C4.56599 12.6229 4.61808 12.7116 4.68594 12.7877C4.75381 12.8637 4.83609 12.9255 4.92802 12.9695C5.01994 13.0135 5.11969 13.0388 5.22147 13.0439C5.32263 13.0491 5.4238 13.0342 5.51918 13.0001L6.16648 12.761L5.26414 10.1714L4.59582 10.4118C4.50147 10.4449 4.41458 10.4963 4.34014 10.5631C4.2657 10.6299 4.20518 10.7107 4.16203 10.8009C4.11889 10.8911 4.09397 10.989 4.08871 11.0888C4.08433 11.1719 4.09363 11.2551 4.11614 11.3349C4.12215 11.3483 4.12759 11.362 4.13243 11.3759ZM21.2501 5.85999L20.7772 6.02224C20.632 5.59892 20.4151 5.20865 20.1396 4.86644L20.9999 7.33971C21.0021 6.89642 20.9287 6.45201 20.7786 6.02624L21.2501 5.85999Z" fill="#F8F8FA"/>
</svg>
