<svg width="24" height="24" viewBox="0 0 24 24" fill="none" xmlns="http://www.w3.org/2000/svg">
<path d="M3 4C3 2.61929 4.11929 1.5 5.5 1.5H12.5C13.8807 1.5 15 2.61929 15 4V4.5C15 4.77614 14.7761 5 14.5 5C14.2239 5 14 4.77614 14 4.5V4C14 3.17157 13.3284 2.5 12.5 2.5H5.5C4.67157 2.5 4 3.17157 4 4V19C4 19.8284 4.67157 20.5 5.5 20.5H12.5C13.3284 20.5 14 19.8284 14 19V16.5C14 16.2239 14.2239 16 14.5 16C14.7761 16 15 16.2239 15 16.5V19C15 20.3807 13.8807 21.5 12.5 21.5H5.5C4.11929 21.5 3 20.3807 3 19V4Z" fill="#0033AA"/>
<path d="M9 19.5C9.55228 19.5 10 19.0523 10 18.5C10 17.9477 9.55228 17.5 9 17.5C8.44772 17.5 8 17.9477 8 18.5C8 19.0523 8.44772 19.5 9 19.5Z" fill="#0033AA"/>
<path fill-rule="evenodd" clip-rule="evenodd" d="M6 7C6 6.17157 6.67157 5.5 7.5 5.5H19.5C20.3284 5.5 21 6.17157 21 7V14C21 14.8284 20.3284 15.5 19.5 15.5H7.5C6.67157 15.5 6 14.8284 6 14V7ZM12 8.5C11.4477 8.5 11 8.94772 11 9.5C11 10.0523 11.4477 10.5 12 10.5C12.5523 10.5 13 10.0523 13 9.5C13 8.94772 12.5523 8.5 12 8.5ZM19.5 14.5C19.7761 14.5 20 14.2761 20 14V10.5H16.7324C16.3866 11.0978 15.7403 11.5 15 11.5C14.9637 11.5 14.9276 11.499 14.8918 11.4971C15.2072 11.8761 15.5164 12.1081 15.772 12.2513C16.0042 12.3815 16.2011 12.4435 16.3327 12.4732C16.3986 12.488 16.4481 12.4947 16.4775 12.4977C16.4921 12.4992 16.5017 12.4998 16.5056 12.5L16.5068 12.5C16.7798 12.5037 17 12.7261 17 13C17 13.2761 16.7762 13.5 16.5 13.5L16.4985 13.5L16.4968 13.5L16.4929 13.5L16.4832 13.4998C16.4759 13.4996 16.467 13.4993 16.4566 13.4988C16.4357 13.4978 16.4084 13.4959 16.3755 13.4925C16.3095 13.4858 16.2205 13.4729 16.113 13.4487C15.8976 13.4002 15.6084 13.306 15.283 13.1237C14.877 12.8961 14.4279 12.5386 14 11.9829V14.5H19.5ZM20 7C20 6.72386 19.7761 6.5 19.5 6.5H14V7.76756C14.2942 7.59739 14.6357 7.5 15 7.5C16.1046 7.5 17 8.39543 17 9.5H20V7ZM12 7.5C12.3643 7.5 12.7058 7.59739 13 7.76756V6.5H7.5C7.22386 6.5 7 6.72386 7 7V9.5H10C10 8.39543 10.8954 7.5 12 7.5ZM11.717 13.1237C12.123 12.8961 12.5721 12.5386 13 11.9829V14.5H7.5C7.22386 14.5 7 14.2761 7 14V10.5H10.2676C10.6134 11.0978 11.2597 11.5 12 11.5C12.0363 11.5 12.0724 11.499 12.1082 11.4971C12.0586 11.5567 12.0091 11.6127 11.96 11.6653C11.6968 11.9469 11.4434 12.1306 11.228 12.2513C10.9959 12.3815 10.7989 12.4435 10.6673 12.4732C10.6014 12.488 10.5519 12.4947 10.5226 12.4977C10.5079 12.4992 10.4984 12.4998 10.4944 12.5L10.4932 12.5C10.2202 12.5037 10 12.7261 10 13C10 13.2761 10.2239 13.5 10.5 13.5L10.502 13.5L10.5033 13.5L10.5072 13.5L10.5168 13.4998C10.5241 13.4996 10.533 13.4993 10.5434 13.4988C10.5644 13.4978 10.5916 13.4959 10.6246 13.4925C10.6905 13.4858 10.7795 13.4729 10.887 13.4487C11.1024 13.4002 11.3916 13.306 11.717 13.1237ZM15 8.5C14.4477 8.5 14 8.94772 14 9.5C14 10.0523 14.4477 10.5 15 10.5C15.5523 10.5 16 10.0523 16 9.5C16 8.94772 15.5523 8.5 15 8.5Z" fill="#0033AA"/>
</svg>
