<svg width="24" height="24" viewBox="0 0 24 24" fill="none" xmlns="http://www.w3.org/2000/svg">
<rect width="24" height="24" fill="#F4F5F7"/>
<path d="M5.08751 4.74204C5.2212 4.50042 5.13371 4.19617 4.89209 4.06248C4.65047 3.92878 4.34622 4.01628 4.21252 4.2579C3.40963 5.70896 2.99215 7.34163 2.99999 8.99997C2.99215 10.6583 3.40963 12.291 4.21252 13.742C4.34622 13.9837 4.65047 14.0712 4.89209 13.9375C5.13371 13.8038 5.2212 13.4995 5.08751 13.2579C4.36702 11.9558 3.99259 10.4906 4.00001 9.00246L3.99999 8.99748C3.99257 7.50934 4.36702 6.04417 5.08751 4.74204Z" fill="#0033AA"/>
<path d="M19.1079 4.06248C19.3495 3.92878 19.6538 4.01628 19.7875 4.2579C20.5904 5.70896 21.0078 7.34163 21 8.99997C21.0078 10.6583 20.5904 12.291 19.7875 13.742C19.6538 13.9837 19.3495 14.0712 19.1079 13.9375C18.8663 13.8038 18.7788 13.4995 18.9125 13.2579C19.633 11.9558 20.0074 10.4906 20 9.00246L20 8.99748C20.0074 7.50934 19.633 6.04417 18.9125 4.74204C18.7788 4.50042 18.8663 4.19617 19.1079 4.06248Z" fill="#0033AA"/>
<path d="M6.6305 5.06161C6.8726 5.19443 6.96119 5.49837 6.82837 5.74047C6.28074 6.73864 5.99569 7.85958 5.99999 8.99808V9.00186C5.99569 10.1404 6.28074 11.2613 6.82837 12.2595C6.96119 12.5016 6.8726 12.8055 6.6305 12.9383C6.3884 13.0712 6.08447 12.9826 5.95164 12.7405C5.32284 11.5943 4.99538 10.3073 4.99999 8.99997C4.99538 7.69268 5.32284 6.40562 5.95164 5.25947C6.08447 5.01737 6.3884 4.92879 6.6305 5.06161Z" fill="#0033AA"/>
<path d="M8.37096 6.06188C8.61291 6.19497 8.70116 6.499 8.56807 6.74096C8.18836 7.43122 7.99271 8.2076 7.99995 8.99538L8.00003 9.00456C7.9928 9.79234 8.18836 10.5687 8.56807 11.259C8.70116 11.5009 8.61291 11.805 8.37096 11.9381C8.12901 12.0712 7.82498 11.9829 7.69188 11.741C7.23019 10.9016 6.99194 9.9578 6.99995 8.99997C6.99194 8.04214 7.23019 7.09829 7.69188 6.25898C7.82498 6.01703 8.12901 5.92878 8.37096 6.06188Z" fill="#0033AA"/>
<path fill-rule="evenodd" clip-rule="evenodd" d="M10 8.99997C10 7.8954 10.8954 6.99997 12 6.99997C13.1046 6.99997 14 7.8954 14 8.99997C14 9.69588 13.6446 10.3088 13.1053 10.667L14.4385 14H14.5V14.1537L16.9642 20.3143C17.0668 20.5707 16.9421 20.8617 16.6857 20.9642C16.4293 21.0668 16.1383 20.9421 16.0358 20.6857L14.9615 18H9.03852L7.96424 20.6857C7.86168 20.9421 7.5707 21.0668 7.3143 20.9642C7.05791 20.8617 6.93321 20.5707 7.03576 20.3143L9.5 14.1537V14H9.56148L10.8947 10.667C10.3554 10.3088 10 9.69588 10 8.99997ZM12 7.99997C11.4477 7.99997 11 8.44769 11 8.99997C11 9.55225 11.4477 9.99997 12 9.99997C12.5523 9.99997 13 9.55225 13 8.99997C13 8.44769 12.5523 7.99997 12 7.99997ZM14.5615 17L13.7615 15H10.2385L9.43852 17H14.5615ZM12.159 10.9937L13.3615 14H10.6385L11.841 10.9937C11.8935 10.9979 11.9465 11 12 11C12.0535 11 12.1065 10.9979 12.159 10.9937Z" fill="#0033AA"/>
<path d="M16.3081 6.25898C16.175 6.01703 15.871 5.92878 15.629 6.06188C15.3871 6.19497 15.2988 6.499 15.4319 6.74096C15.8116 7.43122 16.0072 8.2076 15.9999 8.99538L16 9.00456C16.0073 9.79234 15.8116 10.5687 15.4319 11.259C15.2988 11.5009 15.3871 11.805 15.629 11.9381C15.871 12.0712 16.175 11.9829 16.3081 11.741C16.7698 10.9016 17.008 9.9578 17 8.99997C17.008 8.04214 16.7698 7.09829 16.3081 6.25898Z" fill="#0033AA"/>
<path d="M18.0483 5.25947C17.9155 5.01737 17.6116 4.92879 17.3695 5.06161C17.1274 5.19443 17.0388 5.49837 17.1716 5.74047C17.7192 6.73864 18.0043 7.85958 18 8.99808V9.00186C18.0043 10.1404 17.7192 11.2613 17.1716 12.2595C17.0388 12.5016 17.1274 12.8055 17.3695 12.9383C17.6116 13.0712 17.9155 12.9826 18.0483 12.7405C18.6772 11.5943 19.0046 10.3073 19 8.99997C19.0046 7.69268 18.6772 6.40562 18.0483 5.25947Z" fill="#0033AA"/>
</svg>
