<svg width="24" height="24" viewBox="0 0 24 24" fill="none" xmlns="http://www.w3.org/2000/svg">
<path fill-rule="evenodd" clip-rule="evenodd" d="M20.2751 18.2819C20.2751 19.11 19.6127 19.7794 18.7979 19.7794V19.7772H5.3341C4.51722 19.7772 3.85693 19.1057 3.85693 18.2797V9.77089C3.85693 9.31176 4.06433 8.88053 4.41775 8.59518L11.1497 3.20154C11.6872 2.7703 12.4448 2.7703 12.9824 3.20154L19.7143 8.59733C20.0698 8.88053 20.2751 9.31391 20.2751 9.77303V18.2819ZM12.9038 10.3828C12.9038 10.3828 12.1758 11.4855 12.0213 11.4855V11.4877H6.38559C6.2311 11.4877 6.10413 11.3611 6.10413 11.2023V9.56537C6.10413 9.40876 6.22899 9.28003 6.38559 9.28003H12.0213C12.1758 9.28003 12.9038 10.3828 12.9038 10.3828ZM6.10413 12.7919C6.10413 12.6332 6.2311 12.5066 6.38559 12.5066H14.0275V12.5087C14.182 12.5087 14.91 13.6115 14.91 13.6115C14.91 13.6115 14.182 14.7143 14.0275 14.7143H6.38559C6.22899 14.7143 6.10413 14.5855 6.10413 14.4289V12.7919ZM18.5461 10.4211C18.5461 10.3481 18.4868 10.2881 18.4149 10.2881H17.49C17.4181 10.2881 17.3588 10.228 17.3588 10.155V9.21749C17.3588 9.14454 17.2996 9.08447 17.2276 9.08447H16.7409C16.6689 9.08447 16.6097 9.14454 16.6097 9.21749V10.155C16.6097 10.228 16.5504 10.2881 16.4785 10.2881H15.5536C15.4817 10.2881 15.4224 10.3481 15.4224 10.4211V10.9145C15.4224 10.9875 15.4817 11.0476 15.5536 11.0476H16.4785C16.5504 11.0476 16.6097 11.1076 16.6097 11.1806V12.1181C16.6097 12.1911 16.6689 12.2511 16.7409 12.2511H17.2276C17.2996 12.2511 17.3588 12.1911 17.3588 12.1181V11.1806C17.3588 11.1076 17.4181 11.0476 17.49 11.0476H18.4149C18.4868 11.0476 18.5461 10.9875 18.5461 10.9145V10.4211ZM16.5713 16.8361C16.5713 16.8361 15.8433 15.7333 15.6888 15.7333V15.7312H6.38559C6.2311 15.7312 6.10413 15.8578 6.10413 16.0165V17.6535C6.10413 17.8101 6.22899 17.9389 6.38559 17.9389H15.6888C15.8433 17.9389 16.5713 16.8361 16.5713 16.8361Z" fill="#0033AA"/>
</svg>
