<svg width="24" height="24" viewBox="0 0 24 24" fill="none" xmlns="http://www.w3.org/2000/svg">
<path fill-rule="evenodd" clip-rule="evenodd" d="M16.4637 14.2212L20.3278 15.2276C20.4704 15.2647 20.5894 15.3629 20.6529 15.4959C20.7165 15.6289 20.7181 15.7832 20.6573 15.9175C20.1997 16.9293 19.5558 17.877 18.7265 18.7085C17.2809 20.158 15.4821 21.0438 13.606 21.364C13.46 21.3889 13.3104 21.3478 13.1976 21.2516C13.0848 21.1555 13.0205 21.0143 13.0219 20.8662L13.0607 16.9432C13.0571 16.9338 13.0537 16.9242 13.0506 16.9145C12.9665 16.6514 13.1115 16.37 13.3746 16.286C14.037 16.0742 14.6601 15.7052 15.1862 15.1776C15.4274 14.9359 15.635 14.674 15.8093 14.3976C15.9493 14.1757 16.2352 14.1015 16.4637 14.2212ZM16.4392 15.2482L19.481 16.0404C19.1005 16.7442 18.6131 17.4061 18.0185 18.0023C16.8767 19.1471 15.4908 19.8981 14.028 20.2558L14.0592 17.1013C14.7278 16.8317 15.354 16.4256 15.8943 15.8838C16.0945 15.683 16.2762 15.4704 16.4392 15.2482Z" fill="#0033AA"/>
<path fill-rule="evenodd" clip-rule="evenodd" d="M20.8693 13.275C21.0086 13.3024 21.153 13.2693 21.2665 13.184C21.3799 13.0987 21.4518 12.9691 21.4641 12.8277C21.6991 10.1254 20.7804 7.33979 18.7085 5.27343C17.2621 3.8309 15.4656 2.95069 13.5931 2.63376C13.4502 2.60958 13.3038 2.64858 13.1919 2.74067C13.08 2.83275 13.0136 2.96886 13.0098 3.11374L12.9077 7.03532C12.9041 7.17597 12.9588 7.30456 13.05 7.39782C13.0994 7.54258 13.2144 7.66286 13.3714 7.7129C14.0312 7.92332 14.6524 8.28979 15.1777 8.81369C16.0047 9.63844 16.4436 10.7037 16.4949 11.7854C16.479 11.8202 16.4669 11.8575 16.4592 11.8967C16.4058 12.1676 16.5822 12.4305 16.8531 12.4839L20.8693 13.275ZM17.4847 11.5891L20.4981 12.1826C20.5251 10.9161 20.2709 9.64525 19.7356 8.4714L17.3751 10.8319C17.4292 11.082 17.4658 11.335 17.4847 11.5891ZM17.0272 9.76564C16.7596 9.16314 16.3784 8.59889 15.8838 8.10563C15.6652 7.88759 15.4327 7.69168 15.1891 7.51795L17.3296 5.37745C17.5617 5.56476 17.7864 5.7661 18.0023 5.98149C18.4911 6.46896 18.9082 7.00109 19.2535 7.56479C19.2152 7.58653 19.1791 7.61374 19.1464 7.64643L17.0272 9.76564ZM13.994 3.73582C14.8695 3.94613 15.718 4.29709 16.5039 4.78896L14.2934 6.99942C14.1683 6.94204 14.0414 6.8896 13.9131 6.8421L13.994 3.73582Z" fill="#0033AA"/>
<path fill-rule="evenodd" clip-rule="evenodd" d="M10.4344 21.3708C10.5777 21.3946 10.7243 21.355 10.836 21.2621C10.9477 21.1693 11.0135 21.0325 11.0163 20.8873L11.0924 16.9613C11.0947 16.8423 11.0552 16.7322 10.9874 16.645C10.945 16.4841 10.8234 16.348 10.6529 16.2947C9.984 16.0855 9.35403 15.7165 8.82229 15.1862C7.06257 13.4312 7.05874 10.582 8.81373 8.82225C9.34858 8.28596 9.9838 7.91344 10.6586 7.70347C10.8407 7.64679 10.9673 7.4955 11.0011 7.32044C11.0523 7.24017 11.0811 7.14444 11.079 7.04215L11.0006 3.11504C10.9977 2.96972 10.9317 2.83286 10.8198 2.7401C10.7079 2.64733 10.5611 2.60786 10.4178 2.63195C8.53313 2.9487 6.72526 3.83579 5.27346 5.2915C1.56847 9.00647 1.57656 15.0215 5.29153 18.7265C6.74504 20.1761 8.55201 21.0579 10.4344 21.3708ZM10.0127 3.73424L10.0749 6.84655C9.35593 7.11467 8.68203 7.53818 8.10567 8.11609C5.96068 10.2669 5.96537 13.7493 8.11614 15.8943C8.69392 16.4705 9.3688 16.8921 10.0883 17.1583L10.0281 20.2694C8.55188 19.919 7.15136 19.169 5.99768 18.0185C2.67376 14.7035 2.66652 9.32158 5.98151 5.99766C7.13387 4.8422 8.53493 4.08796 10.0127 3.73424Z" fill="#0033AA"/>
</svg>
