<svg width="24" height="24" viewBox="0 0 24 24" fill="none" xmlns="http://www.w3.org/2000/svg">
<path fill-rule="evenodd" clip-rule="evenodd" d="M9.49999 2.5C9.49999 1.94772 9.94771 1.5 10.5 1.5H13.5C14.0523 1.5 14.5 1.94772 14.5 2.5V4.92691C15.3782 5.2373 16.1809 5.70637 16.8738 6.29934L18.9772 5.08495C19.4555 4.8088 20.0671 4.97268 20.3433 5.45097L21.8433 8.04905C22.1194 8.52734 21.9555 9.13893 21.4772 9.41507L19.3749 10.6289C19.4571 11.0737 19.5 11.5321 19.5 12C19.5 12.4679 19.4571 12.9263 19.3749 13.3711L21.4772 14.5849C21.9555 14.8611 22.1194 15.4727 21.8433 15.951L20.3433 18.549C20.0671 19.0273 19.4555 19.1912 18.9772 18.9151L16.8738 17.7007C16.1809 18.2936 15.3782 18.7627 14.5 19.0731V21.5C14.5 22.0523 14.0523 22.5 13.5 22.5H10.5C9.94771 22.5 9.49999 22.0523 9.49999 21.5V19.0731C8.62184 18.7627 7.81911 18.2936 7.12616 17.7007L5.02275 18.9151C4.54446 19.1912 3.93287 19.0273 3.65673 18.549L2.15673 15.951C1.88058 15.4727 2.04446 14.8611 2.52275 14.5849L4.62513 13.3711C4.54291 12.9263 4.49999 12.468 4.49999 12C4.49999 11.5321 4.54291 11.0737 4.62513 10.6289L2.52275 9.41507C2.04446 9.13893 1.88058 8.52734 2.15672 8.04904L3.65672 5.45097C3.93287 4.97267 4.54446 4.8088 5.02275 5.08494L7.12615 6.29934C7.8191 5.70637 8.62183 5.2373 9.49999 4.92691V2.5ZM12 8.5C10.067 8.5 8.49999 10.067 8.49999 12C8.49999 13.933 10.067 15.5 12 15.5C13.933 15.5 15.5 13.933 15.5 12C15.5 10.067 13.933 8.5 12 8.5Z" fill="#0033AA"/>
</svg>
