<svg width="24" height="24" viewBox="0 0 24 24" fill="none" xmlns="http://www.w3.org/2000/svg">
<path d="M17.5097 4.59791C17.4556 4.32713 17.6312 4.06372 17.902 4.00956C18.1728 3.95541 18.4362 4.13101 18.4903 4.40179L18.9903 6.90179C18.9907 6.90376 18.9915 6.90768 18.9915 6.90768C18.9931 6.91617 18.9944 6.92466 18.9956 6.93313C19.1025 7.09969 19.2044 7.27043 19.301 7.44484L19.5096 6.40192C19.5638 6.13114 19.8272 5.95553 20.098 6.00968C20.3687 6.06384 20.5443 6.32725 20.4902 6.59803L20.0026 9.03605C20.1558 9.4901 20.2758 9.95653 20.3596 10.4286L21.0711 9.24271C21.2131 9.00592 21.5203 8.92913 21.7571 9.07121C21.9938 9.21328 22.0706 9.52041 21.9286 9.7572L20.4989 12.14C20.4862 12.9182 20.3683 13.6997 20.1589 14.4548L21.1001 13.1999C21.2658 12.979 21.5792 12.9342 21.8001 13.0999C22.021 13.2656 22.0658 13.579 21.9001 13.7999L19.1819 17.4241L21.3078 16.5383C21.5627 16.4321 21.8555 16.5527 21.9617 16.8076C22.0679 17.0625 21.9473 17.3552 21.6924 17.4614L15.6924 19.9614L15.6799 19.9665C15.6735 19.969 15.6675 19.9711 15.6619 19.973C15.4138 20.0582 15.1391 19.9362 15.0378 19.6904C14.9325 19.4351 15.0542 19.1429 15.3095 19.0376C17.7 18.0522 19.4937 15.0425 19.5 12.0158C19.4996 12.005 19.4996 11.9941 19.5 11.9832C19.4934 8.95679 17.6998 5.94747 15.3095 4.96215C15.0542 4.85691 14.9325 4.56464 15.0378 4.30933C15.143 4.05403 15.4353 3.93238 15.6906 4.03762C16.4063 4.33267 17.0663 4.77127 17.6533 5.31583L17.5097 4.59791Z" fill="#0033AA"/>
<path fill-rule="evenodd" clip-rule="evenodd" d="M11.2032 5.31897C11.4178 5.11381 11.7034 5 11.9997 5C12.296 5 12.5817 5.11381 12.7962 5.31897C12.8114 5.33342 12.8255 5.3488 12.8387 5.36502C13.4142 6.07313 13.6877 6.97669 13.5999 7.88227L13.5999 8.47077L17.7629 11.0449C17.9102 11.136 17.9999 11.2969 17.9999 11.4702V12.5585C17.9999 12.7006 17.9394 12.836 17.8336 12.9309C17.7277 13.0257 17.5865 13.071 17.4453 13.0555L13.5999 12.6328V13.7737L15.618 15.4376C15.7332 15.5326 15.7999 15.6741 15.7999 15.8234V16.9117C15.7999 17.0585 15.7354 17.1979 15.6234 17.2929C15.5115 17.3879 15.3634 17.4289 15.2185 17.405L13.0499 17.0474V17.4559C13.0499 18.0376 12.5747 18.5 11.9999 18.5C11.425 18.5 10.9499 18.0376 10.9499 17.4559V17.0474L8.78124 17.405C8.63637 17.4289 8.48832 17.3879 8.37637 17.2929C8.26442 17.1979 8.19989 17.0585 8.19989 16.9117V15.8234C8.19989 15.6741 8.26662 15.5326 8.38182 15.4376L10.3999 13.7738V12.58L6.56126 13.0547C6.41904 13.0723 6.27611 13.028 6.16874 12.9331C6.06137 12.8382 5.99989 12.7018 5.99989 12.5585V11.4702C5.99989 11.2969 6.08957 11.136 6.23693 11.0449L10.3999 8.47078V7.90561C10.3537 7.45809 10.3955 7.00589 10.523 6.57404C10.6532 6.13315 10.8699 5.722 11.161 5.36459C11.1741 5.34853 11.1882 5.33329 11.2032 5.31897ZM11.9108 6.02814C11.7162 6.27521 11.5708 6.55659 11.4821 6.85719C11.3896 7.17064 11.3606 7.499 11.3968 7.82344C11.3988 7.84185 11.3999 7.86036 11.3999 7.87889V8.74947C11.3999 8.92272 11.3102 9.08362 11.1628 9.17474L6.99989 11.7489V11.9928L10.8385 11.5181C10.9807 11.5005 11.1237 11.5448 11.231 11.6397C11.3384 11.7346 11.3999 11.871 11.3999 12.0143V14.0096C11.3999 14.1589 11.3331 14.3004 11.2179 14.3953L9.19989 16.0592V16.3225L11.3685 15.9649C11.5134 15.941 11.6615 15.982 11.7734 16.077C11.8854 16.172 11.9499 16.3114 11.9499 16.4582V17.4559C11.9499 17.4752 11.9672 17.5 11.9999 17.5C12.0326 17.5 12.0499 17.4752 12.0499 17.4559V16.4582C12.0499 16.3114 12.1144 16.172 12.2264 16.077C12.3383 15.982 12.4864 15.941 12.6312 15.9649L14.7999 16.3225V16.0592L12.7818 14.3953C12.6666 14.3003 12.5999 14.1588 12.5999 14.0095V12.0748C12.5999 11.9327 12.6604 11.7973 12.7662 11.7024C12.872 11.6076 13.0132 11.5623 13.1545 11.5778L16.9999 12.0005V11.7489L12.8369 9.17473C12.6896 9.08362 12.5999 8.92272 12.5999 8.74947L12.5999 7.85713C12.5999 7.83969 12.6008 7.82227 12.6026 7.80492C12.6693 7.16959 12.4852 6.53297 12.0885 6.02803C12.0633 6.0102 12.0324 6 11.9997 6C11.967 6 11.936 6.01024 11.9108 6.02814Z" fill="#0033AA"/>
<path d="M6.09804 4.00968C6.36882 4.06384 6.54443 4.32725 6.49027 4.59803L6.34669 5.31596C6.93369 4.77139 7.59369 4.33279 8.30945 4.03774C8.56475 3.9325 8.85703 4.05415 8.96227 4.30946C9.06751 4.56476 8.94585 4.85704 8.69055 4.96228C6.30025 5.94759 4.50658 8.95691 4.50002 11.9833C4.50037 11.9942 4.50037 12.0051 4.50002 12.0159C4.50629 15.0426 6.30005 18.0523 8.69055 19.0377C8.94585 19.143 9.06751 19.4353 8.96227 19.6906C8.86094 19.9364 8.58624 20.0583 8.33808 19.9731C8.32904 19.9701 8.31889 19.9663 8.30758 19.9615L2.30758 17.4615C2.05268 17.3553 1.93214 17.0626 2.03835 16.8077C2.14456 16.5528 2.43729 16.4323 2.69219 16.5385L4.81809 17.4243L2.09992 13.8C1.93423 13.5791 1.979 13.2657 2.19992 13.1C2.42083 12.9343 2.73423 12.9791 2.89992 13.2L3.84112 14.455C3.63167 13.6998 3.51382 12.9183 3.50114 12.1401L2.07146 9.75732C1.92939 9.52053 2.00617 9.2134 2.24296 9.07133C2.47975 8.92926 2.78688 9.00604 2.92895 9.24283L3.64046 10.4287C3.7242 9.95665 3.84423 9.49022 3.99743 9.03617L3.50983 6.59815C3.45567 6.32737 3.63128 6.06396 3.90206 6.00981C4.17284 5.95565 4.43625 6.13126 4.49041 6.40204L4.69899 7.44496C4.79567 7.27055 4.89756 7.09982 5.00444 6.93325C5.00585 6.92283 5.0076 6.91238 5.00969 6.90192L5.50969 4.40192C5.56385 4.13114 5.82726 3.95553 6.09804 4.00968Z" fill="#0033AA"/>
</svg>
