<svg width="24" height="24" viewBox="0 0 24 24" fill="none" xmlns="http://www.w3.org/2000/svg">
<path d="M11.9998 2.97C10.4906 2.97 9.06795 3.34021 7.8176 3.99478L8.90006 5.75363C9.03611 5.97469 8.96719 6.26419 8.74613 6.40024C8.52507 6.53629 8.23557 6.46738 8.09952 6.24631L7.00855 4.47364C4.69642 6.01004 3.13289 8.58344 2.98181 11.53H4.99979C5.25936 11.53 5.46979 11.7404 5.46979 12C5.46979 12.2596 5.25936 12.47 4.99979 12.47H2.9818C3.13446 15.4476 4.72935 18.0447 7.08331 19.5756L11.5928 11.765C11.7225 11.5402 12.01 11.4632 12.2348 11.593C12.4596 11.7227 12.5366 12.0102 12.4068 12.235L7.65682 20.4622C7.52703 20.687 7.23959 20.764 7.01479 20.6343L7.00364 20.6276C6.99113 20.6217 6.97878 20.6152 6.96661 20.6081C4.0142 18.8782 2.02979 15.6711 2.02979 12C2.02979 6.49372 6.49351 2.03 11.9998 2.03C17.5061 2.03 21.9698 6.49372 21.9698 12C21.9698 15.6711 19.9854 18.8782 17.033 20.6081C16.809 20.7393 16.5211 20.6641 16.3898 20.4401C16.3529 20.377 16.3323 20.3088 16.3268 20.2405L15.0995 18.2464C14.9635 18.0253 15.0324 17.7358 15.2534 17.5997C15.4745 17.4637 15.764 17.5326 15.9001 17.7537L16.9911 19.5264C19.304 17.9894 20.8667 15.416 21.0178 12.47H18.9998C18.7402 12.47 18.5298 12.2596 18.5298 12C18.5298 11.7404 18.7402 11.53 18.9998 11.53H21.0178C20.8667 8.58344 19.3032 6.01004 16.991 4.47364L15.9001 6.24633C15.764 6.4674 15.4745 6.53631 15.2534 6.40027C15.0324 6.26422 14.9635 5.97472 15.0995 5.75365L16.182 3.99478C14.9316 3.34021 13.5089 2.97 11.9998 2.97Z" fill="#0033AA"/>
</svg>
