<svg width="24" height="24" viewBox="0 0 24 24" fill="none" xmlns="http://www.w3.org/2000/svg">
<path fill-rule="evenodd" clip-rule="evenodd" d="M7.28184 3.42394C6.98007 3.34634 6.66529 3.33267 6.35777 3.38406C6.06136 3.4336 5.77769 3.54224 5.52395 3.7043L4.14671 4.38941C4.12753 4.39895 4.10899 4.40971 4.09119 4.42163C3.6851 4.69357 3.35762 5.06748 3.14145 5.50566C2.92603 5.94233 2.82862 6.42767 2.85892 6.91363C2.89038 7.61845 2.98382 8.31896 3.13816 9.00738C3.14106 9.02032 3.14448 9.03314 3.1484 9.04581C4.00984 11.8295 5.53856 14.3608 7.60151 16.4189C9.66448 18.477 12.1991 19.9994 14.9849 20.8542C14.9974 20.858 15.0102 20.8614 15.023 20.8642C15.7107 21.0172 16.4104 21.1108 17.1142 21.1436C17.122 21.1439 17.1297 21.1441 17.1375 21.1441H17.2851L17.2865 21.1441C17.7468 21.1429 18.2001 21.0276 18.6052 20.8075C19.0102 20.5876 19.354 20.2703 19.6058 19.8847C19.6179 19.8662 19.6287 19.8469 19.6383 19.827L20.3079 18.4264C20.461 18.1749 20.563 17.8957 20.6077 17.6042C20.654 17.3028 20.638 16.9954 20.5608 16.7004C20.4837 16.4057 20.3469 16.1292 20.1588 15.8889C19.9707 15.6487 19.7355 15.4499 19.4678 15.3042C19.4179 15.2771 19.3645 15.259 19.31 15.2501L16.1236 13.61L16.1212 13.6088C15.6597 13.3744 15.131 13.3068 14.6251 13.4185C14.1192 13.5302 13.6675 13.8149 13.3477 14.2218L12.7262 15.0149C11.9798 14.5565 11.294 14.005 10.6851 13.3737L10.6755 13.3643C10.0351 12.7352 9.47672 12.0289 9.01295 11.2618L9.80818 10.6387L9.81274 10.635C10.2145 10.3126 10.4939 9.86232 10.6049 9.35956C10.716 8.85666 10.652 8.33094 10.4234 7.86942L8.70298 4.54925L8.70148 4.5464C8.55643 4.27084 8.3552 4.0281 8.11047 3.83462C7.86576 3.64114 7.58344 3.50149 7.28184 3.42394ZM19.0001 16.2152C19.0348 16.2331 19.0711 16.2467 19.1082 16.2559C19.2076 16.3255 19.2964 16.4095 19.3714 16.5054C19.4751 16.6377 19.5507 16.7905 19.5934 16.9536C19.636 17.1165 19.6448 17.2861 19.6193 17.4525C19.5938 17.6188 19.5345 17.778 19.4449 17.9207C19.4348 17.9369 19.4255 17.9536 19.4173 17.9708L18.7513 19.3638C18.5917 19.5992 18.3779 19.793 18.1279 19.9288C17.8692 20.0693 17.5787 20.1432 17.2837 20.1441L17.1493 20.1441C16.5134 20.1138 15.8811 20.0295 15.2593 19.8924C12.6367 19.0842 10.2507 17.6492 8.30778 15.7109C6.36493 13.7727 4.92397 11.3898 4.10962 8.76927C3.97037 8.14289 3.88619 7.5057 3.85783 6.86466L3.8572 6.85471C3.8371 6.54185 3.89953 6.22928 4.03826 5.94809C4.17254 5.67588 4.37372 5.4424 4.62267 5.26954L5.99479 4.58697C6.01289 4.57797 6.03043 4.56787 6.04731 4.55674C6.19063 4.46225 6.35247 4.39882 6.52262 4.37038C6.69225 4.34203 6.86604 4.34955 7.03279 4.39243C7.19972 4.43535 7.35551 4.51252 7.49029 4.61907C7.62467 4.72531 7.73565 4.85888 7.81589 5.01086L9.52907 8.31697C9.65498 8.57338 9.69003 8.86494 9.62843 9.14394C9.56668 9.42357 9.41157 9.67395 9.18888 9.85348L8.05449 10.7424C7.8614 10.8937 7.8066 11.1627 7.9251 11.3775C8.47283 12.3703 9.16162 13.278 9.96991 14.073C10.7446 14.8751 11.6328 15.5594 12.6063 16.1036C12.8214 16.2238 13.0919 16.1694 13.2439 15.9755L14.1347 14.8387C14.3119 14.6136 14.5615 14.4567 14.8407 14.395C15.1197 14.3334 15.4118 14.3704 15.6672 14.4998L15.6683 14.5004L19.0001 16.2152Z" fill="#0033AA"/>
<path d="M19.2535 4.67645C19.4488 4.87171 19.4488 5.18829 19.2535 5.38355L14.6371 10H17.4999C17.7761 10 17.9999 10.2239 17.9999 10.5C17.9999 10.7761 17.7761 11 17.4999 11H13.4999C13.2238 11 12.9999 10.7761 12.9999 10.5V6.5C12.9999 6.22386 13.2238 6 13.4999 6C13.7761 6 13.9999 6.22386 13.9999 6.5V9.22292L18.5464 4.67645C18.7417 4.48118 19.0583 4.48118 19.2535 4.67645Z" fill="#0033AA"/>
</svg>
