<svg width="24" height="24" viewBox="0 0 24 24" fill="none" xmlns="http://www.w3.org/2000/svg">
<path fill-rule="evenodd" clip-rule="evenodd" d="M18.5039 4.69265L20.6466 2.54995C20.8418 2.35469 21.1584 2.35469 21.3537 2.54995C21.549 2.74521 21.549 3.06179 21.3537 3.25706L19.2112 5.39952C19.3441 5.745 19.3177 6.14214 19.1179 6.47516L18.4014 7.66935L18.5284 7.79638C19.1695 8.43742 19.1695 9.47675 18.5284 10.1178L9.6498 18.9964C9.45454 19.1917 9.13795 19.1917 8.94269 18.9964L8.00488 18.0586L5.88533 20.1782L6.35355 20.6464C6.54882 20.8417 6.54882 21.1582 6.35355 21.3535C6.15829 21.5488 5.84171 21.5488 5.64645 21.3535L2.64645 18.3535C2.45118 18.1582 2.45118 17.8417 2.64645 17.6464C2.84171 17.4511 3.15829 17.4511 3.35355 17.6464L3.83835 18.1312L5.9579 16.0116L4.90695 14.9607C4.71168 14.7654 4.71168 14.4488 4.90695 14.2536L13.7856 5.37493C14.4266 4.7339 15.466 4.7339 16.107 5.37494L16.2348 5.50277L17.429 4.78626C17.7618 4.58659 18.1586 4.56013 18.5039 4.69265ZM17.9435 5.64375C18.0344 5.58922 18.1507 5.60354 18.2257 5.67849C18.3006 5.75344 18.315 5.86978 18.2604 5.96067L17.6728 6.94L16.9642 6.23135L17.9435 5.64375ZM14.4927 6.08204C14.7432 5.83153 15.1494 5.83153 15.3999 6.08204L17.8213 8.50349C18.0718 8.754 18.0718 9.16017 17.8213 9.41068L9.29625 17.9358L5.96761 14.6071L7.68567 12.8891C7.69975 12.9078 7.71532 12.9258 7.73238 12.9429L8.94311 14.1536C9.13837 14.3488 9.45495 14.3488 9.65021 14.1536C9.84548 13.9583 9.84548 13.6417 9.65021 13.4465L8.43949 12.2358C8.42243 12.2187 8.40444 12.2031 8.38569 12.189L9.70338 10.8714C9.71743 10.89 9.73295 10.908 9.74996 10.925L10.9607 12.1357C11.1559 12.331 11.4725 12.331 11.6678 12.1357C11.8631 11.9404 11.8631 11.6239 11.6678 11.4286L10.4571 10.2179C10.4401 10.2009 10.4221 10.1853 10.4034 10.1713L11.7214 8.85337C11.7354 8.87209 11.751 8.89006 11.768 8.90709L12.9788 10.1178C13.174 10.3131 13.4906 10.3131 13.6859 10.1178C13.8811 9.92256 13.8811 9.60597 13.6859 9.41071L12.4751 8.19999C12.4581 8.18295 12.4401 8.1674 12.4214 8.15333L14.4927 6.08204ZM4.5554 18.8284L6.64453 16.7392L7.2773 17.372L5.18817 19.4611L4.5554 18.8284Z" fill="#0033AA"/>
</svg>
